HIERARCHY
ROOT Hips
{
    OFFSET 0.000000 0.000000 0.000000
    CHANNELS 6 Xposition Yposition Zposition Zrotation Xrotation Yrotation
    JOINT Spine
    {
        OFFSET -0.000000 8.172037 0.000000
        CHANNELS 3 Zrotation Xrotation Yrotation
        JOINT Spine1
        {
            OFFSET -0.000000 18.392342 0.000000
            CHANNELS 3 Zrotation Xrotation Yrotation
            JOINT Neck
            {
                OFFSET -0.000000 18.316809 1.665164
                CHANNELS 3 Zrotation Xrotation Yrotation
                JOINT Head
                {
                    OFFSET -0.000000 13.952258 -1.993180
                    CHANNELS 3 Zrotation Xrotation Yrotation
                    End Site
                    {
                        OFFSET -0.000000 24.914745 0.000000
                    }
                }
            }
            JOINT LeftShoulder
            {
                OFFSET 4.035833 16.062790 -0.310290
                CHANNELS 3 Zrotation Xrotation Yrotation
                JOINT LeftArm
                {
                    OFFSET 12.395579 0.000000 0.000000
                    CHANNELS 3 Zrotation Xrotation Yrotation
                    JOINT LeftForeArm
                    {
                        OFFSET 26.414022 0.000000 0.000000
                        CHANNELS 3 Zrotation Xrotation Yrotation
                        JOINT LeftHand
                        {
                            OFFSET 28.641636 0.000000 0.000000
                            CHANNELS 3 Zrotation Xrotation Yrotation
                            End Site
                            {
                                OFFSET 14.948848 0.000000 0.000000
                            }
                        }
                    }
                }
            }
            JOINT RightShoulder
            {
                OFFSET -3.919767 16.062790 -0.310290
                CHANNELS 3 Zrotation Xrotation Yrotation
                JOINT RightArm
                {
                    OFFSET -12.395579 0.000000 0.000000
                    CHANNELS 3 Zrotation Xrotation Yrotation
                    JOINT RightForeArm
                    {
                        OFFSET -26.414022 0.000000 0.000000
                        CHANNELS 3 Zrotation Xrotation Yrotation
                        JOINT RightHand
                        {
                            OFFSET -28.641636 0.000000 0.000000
                            CHANNELS 3 Zrotation Xrotation Yrotation
                            End Site
                            {
                                OFFSET -14.948848 0.000000 0.000000
                            }
                        }
                    }
                }
            }
        }
    }
    JOINT LeftUpLeg
    {
        OFFSET 9.965899 0.000000 0.000000
        CHANNELS 3 Zrotation Xrotation Yrotation
        JOINT LeftLeg
        {
            OFFSET -0.000000 -49.671295 0.000000
            CHANNELS 3 Zrotation Xrotation Yrotation
            JOINT LeftFoot
            {
                OFFSET -0.000000 -36.155865 0.000000
                CHANNELS 3 Zrotation Xrotation Yrotation
                JOINT LeftToeBase
                {
                    OFFSET -0.000000 -6.477834 14.948848
                    CHANNELS 3 Zrotation Xrotation Yrotation
                    End Site
                    {
                        OFFSET -0.000000 0.000000 3.986359
                    }
                }
            }
        }
    }
    JOINT RightUpLeg
    {
        OFFSET -9.965899 0.000000 0.000000
        CHANNELS 3 Zrotation Xrotation Yrotation
        JOINT RightLeg
        {
            OFFSET -0.000000 -49.671295 0.000000
            CHANNELS 3 Zrotation Xrotation Yrotation
            JOINT RightFoot
            {
                OFFSET -0.000000 -36.155865 0.000000
                CHANNELS 3 Zrotation Xrotation Yrotation
                JOINT RightToeBase
                {
                    OFFSET -0.000000 -6.477834 14.948848
                    CHANNELS 3 Zrotation Xrotation Yrotation
                    End Site
                    {
                        OFFSET -0.000000 0.000000 3.986359
                    }
                }
            }
        }
    }
}
MOTION
Frames:    5
Frame Time:    0.010000
-19.645973    96.343925    38.832100    -2.094100    2.083597    -175.989029    -4.679081    -3.146485    -1.806944    0.834162    -2.551378    -1.659835    6.470468    18.255816    0.423110    -1.949318    -0.911810    0.269706    16.388098    1.102108    0.620149    -26.800648    -6.616785    -5.165504    3.390836    -1.063874    -13.093679    -1.370121    -0.698073    1.953201    -9.586103    2.274161    6.792083    23.516098    0.373331    0.177886    -8.864747    -8.722662    12.451693    0.973380    -7.739163    2.910811    5.602846    0.549869    -0.467623    -4.355648    12.127005    1.669828    -0.599700    -8.483423    -4.897058    0.000000    0.000000    0.000000    -11.033570    4.695662    -3.870715    7.466893    10.501440    1.685365    -14.248700    -9.032893    -1.318489    0.000000    0.000000    0.000000    
-19.650547    96.353470    38.841290    -2.080563    2.082690    -175.999191    -4.479271    -3.223162    -1.795179    0.436466    -2.470650    -1.659701    6.732995    18.281973    0.423603    -2.038856    -0.919503    0.263282    16.630060    1.090769    0.578841    -26.776573    -6.435837    -5.192966    3.458882    -1.127523    -12.992588    -1.442015    -0.757734    1.923436    -9.333632    2.288368    6.847032    23.476295    0.307561    0.139547    -8.889210    -8.636138    12.388530    1.364270    -7.641879    3.161947    5.608973    0.551157    -0.509036    -4.567976    12.258986    2.591349    -0.271497    -8.743197    -5.265508    0.000000    0.000000    0.000000    -11.031105    4.744824    -3.828649    7.492253    10.372179    1.671913    -14.229709    -8.973203    -1.311482    0.000000    0.000000    0.000000    
-19.652090    96.357597    38.843597    -2.051977    2.094158    -176.005936    -4.463125    -3.219298    -1.786021    0.463365    -2.487132    -1.650482    6.685941    18.252142    0.442243    -1.996134    -0.834075    0.287723    16.614506    1.107187    0.553328    -26.718567    -6.261220    -5.220443    3.501589    -1.210994    -12.952956    -1.516475    -0.838862    1.921584    -9.339322    2.304874    6.866250    23.437851    0.281569    0.072974    -8.814753    -8.583682    12.418957    1.333924    -7.596026    3.143770    5.636983    0.563857    -0.521061    -4.573289    12.253919    2.599869    -0.257980    -8.758924    -5.265782    0.000000    0.000000    0.000000    -10.997517    4.803911    -3.836062    7.575481    10.295546    1.507609    -14.362342    -8.983212    -1.258994    0.000000    0.000000    0.000000    
-19.659618    96.356369    38.852665    -2.043674    2.072641    -176.012360    -4.444733    -3.231578    -1.775838    0.459318    -2.528885    -1.640255    6.692168    18.265238    0.436360    -2.030689    -0.788274    0.278079    16.602634    1.109401    0.509202    -26.632774    -6.193355    -5.204344    3.466853    -1.210915    -12.950719    -1.549298    -0.843382    1.923783    -9.358739    2.317157    6.874469    23.446774    0.282952    0.049298    -8.778886    -8.531664    12.398802    1.113987    -7.556567    3.013357    5.632195    0.538079    -0.500594    -4.558248    12.253000    2.586854    -0.259704    -8.758273    -5.259730    0.000000    0.000000    0.000000    -10.993831    4.808230    -3.854549    7.482041    10.191234    1.650252    -14.234484    -8.908283    -1.216635    0.000000    0.000000    0.000000    
-19.664829    96.363091    38.860413    -2.029449    2.094178    -176.012268    -4.429062    -3.206741    -1.771256    0.460743    -2.547209    -1.636961    6.669513    18.258739    0.450655    -1.999928    -0.748488    0.297377    16.599405    1.102682    0.481877    -26.577063    -6.131004    -5.201613    3.476593    -1.215718    -12.942022    -1.620078    -0.848054    1.891976    -9.349483    2.322107    6.893635    23.418158    0.249942    0.018227    -8.747921    -8.465823    12.344767    1.423504    -7.487051    3.251632    5.642475    0.547129    -0.492713    -4.542019    12.275519    2.557849    -0.269390    -8.761645    -5.258077    0.000000    0.000000    0.000000    -10.980942    4.865733    -3.849776    7.574623    10.141636    1.471797    -14.343499    -8.931618    -1.165617    0.000000    0.000000    0.000000    
